<?xml version="1.0" encoding="UTF-8"?>
<svg xmlns="http://www.w3.org/2000/svg" xmlns:xlink="http://www.w3.org/1999/xlink" width="300pt" height="300pt" viewBox="0 0 300 300" version="1.1">
<g id="surface1">
<rect x="0" y="0" width="300" height="300" style="fill:rgb(100%,100%,100%);fill-opacity:1;stroke:none;"/>
<path style="fill:none;stroke-width:1.2;stroke-linecap:butt;stroke-linejoin:miter;stroke:rgb(0%,0%,0%);stroke-opacity:1;stroke-miterlimit:10;" d="M 114.996094 201.5625 L 134.121094 168.4375 "/>
<path style="fill:none;stroke-width:1.2;stroke-linecap:butt;stroke-linejoin:miter;stroke:rgb(0%,0%,0%);stroke-opacity:1;stroke-miterlimit:10;" d="M 108.503906 197.8125 L 127.628906 164.6875 "/>
<path style="fill:none;stroke-width:1.2;stroke-linecap:butt;stroke-linejoin:miter;stroke:rgb(0%,0%,0%);stroke-opacity:1;stroke-miterlimit:10;" d="M 130.875 166.5625 L 111.75 133.4375 "/>
<path style="fill:none;stroke-width:1.2;stroke-linecap:butt;stroke-linejoin:miter;stroke:rgb(0%,0%,0%);stroke-opacity:1;stroke-miterlimit:10;" d="M 111.75 133.4375 L 130.875 100.3125 "/>
<path style="fill:none;stroke-width:1;stroke-linecap:butt;stroke-linejoin:miter;stroke:rgb(0%,0%,0%);stroke-opacity:1;stroke-miterlimit:10;" d="M 169.125 100.3125 L 169.125 100.3125 M 166.15625 99.875 L 166.15625 100.75 M 163.1875 99.4375 L 163.1875 101.183594 M 160.222656 99.003906 L 160.222656 101.621094 M 157.253906 98.566406 L 157.253906 102.058594 M 154.285156 98.128906 L 154.285156 102.496094 M 151.316406 97.691406 L 151.316406 102.929688 M 148.347656 97.257812 L 148.347656 103.367188 M 145.378906 96.820312 L 145.378906 103.804688 M 142.414062 96.382812 L 142.414062 104.238281 M 139.445312 95.945312 L 139.445312 104.675781 M 136.476562 95.511719 L 136.476562 105.113281 M 133.507812 95.074219 L 133.507812 105.550781 M 130.875 94.6875 L 130.875 105.9375 "/>
<path style="fill:none;stroke-width:1.2;stroke-linecap:butt;stroke-linejoin:miter;stroke:rgb(0%,0%,0%);stroke-opacity:1;stroke-miterlimit:10;" d="M 169.125 100.3125 L 150 133.4375 "/>
<path style="fill:none;stroke-width:1.2;stroke-linecap:butt;stroke-linejoin:miter;stroke:rgb(0%,0%,0%);stroke-opacity:1;stroke-miterlimit:10;" d="M 150 133.4375 L 124.9375 121.214844 "/>
<path style="fill:none;stroke-width:1.2;stroke-linecap:butt;stroke-linejoin:miter;stroke:rgb(0%,0%,0%);stroke-opacity:1;stroke-miterlimit:10;" d="M 150 133.4375 L 124.9375 145.660156 "/>
<path style="fill:none;stroke-width:1.2;stroke-linecap:butt;stroke-linejoin:miter;stroke:rgb(0%,0%,0%);stroke-opacity:1;stroke-miterlimit:10;" d="M 150 133.4375 L 169.125 166.5625 "/>
<path style="fill:none;stroke-width:1;stroke-linecap:butt;stroke-linejoin:miter;stroke:rgb(0%,0%,0%);stroke-opacity:1;stroke-miterlimit:10;" d="M 169.125 166.5625 L 169.125 166.5625 M 170.988281 164.210938 L 170.230469 163.773438 M 172.847656 161.859375 L 171.335938 160.984375 M 174.710938 159.507812 L 172.441406 158.195312 M 176.574219 157.152344 L 173.550781 155.40625 M 178.433594 154.800781 L 174.65625 152.621094 M 180.296875 152.449219 L 175.761719 149.832031 M 182.160156 150.097656 L 176.867188 147.042969 M 184.019531 147.746094 L 177.972656 144.253906 M 185.882812 145.394531 L 179.078125 141.464844 M 187.746094 143.039062 L 180.183594 138.675781 M 189.609375 140.6875 L 181.292969 135.886719 M 191.46875 138.335938 L 182.398438 133.097656 M 193.121094 136.25 L 183.378906 130.625 "/>
<path style="fill:none;stroke-width:1.2;stroke-linecap:butt;stroke-linejoin:miter;stroke:rgb(0%,0%,0%);stroke-opacity:1;stroke-miterlimit:10;" d="M 169.125 166.5625 L 130.875 166.5625 "/>
<path style="fill:none;stroke-width:1.2;stroke-linecap:butt;stroke-linejoin:miter;stroke:rgb(0%,0%,0%);stroke-opacity:1;stroke-miterlimit:10;" d="M 188.25 133.4375 L 169.125 100.3125 "/>
</g>
</svg>
